# xmcd CD database file
#
# Track frame offsets:
#	150
#	16411
#	35537
#	49499
#	64235
#	77294
#	91723
#	102967
#	115170
#	129079
#	145784
#	162713
#	180912
#	193798
#	206398
#	221827
#
# Disc length: 3314 seconds
#
# Revision: 0
# Processed by: cddbd v1.4PL0 Copyright (c) Steve Scherf et al.
# Submitted via: Feurio! 1.65 - http://www.feurio.com
#
DISCID=d70cf010
DTITLE=Various Artist - Romantic Piano 05
DYEAR=1900
DGENRE=piano
TTITLE0=Cavatina theme from the deer hunter
TTITLE1=Memories of love
TTITLE2=Mille vagues d'or
TTITLE3=Tender troubled thought
TTITLE4=Reflections
TTITLE5=A comme amour
TTITLE6=Home coming
TTITLE7=Tide
TTITLE8=Moon river
TTITLE9=Tess song
TTITLE10=Morning has broken
TTITLE11=Sometime when we touch
TTITLE12=Meggie's theme
TTITLE13=The god father
TTITLE14=Serenade
TTITLE15=Spring rain
EXTD=
EXTT0=
EXTT1=
EXTT2=
EXTT3=
EXTT4=
EXTT5=
EXTT6=
EXTT7=
EXTT8=
EXTT9=
EXTT10=
EXTT11=
EXTT12=
EXTT13=
EXTT14=
EXTT15=
PLAYORDER=
